<?xml version="1.0" encoding="UTF-8"?><svg id="a" xmlns="http://www.w3.org/2000/svg" viewBox="0 0 24 24"><path d="M16.44,2.5c-1.7,0-3.28,.69-4.44,1.91-1.15-1.22-2.74-1.91-4.44-1.91-3.4,0-6.16,2.78-6.16,6.19,0,7.62,7.25,11.82,9.79,12.69,.23,.08,.52,.12,.81,.12s.58-.04,.81-.12c2.54-.87,9.79-5.07,9.79-12.69,0-3.41-2.77-6.19-6.16-6.19Zm-4.01,17.75c-.22,.08-.63,.08-.85,0-2.33-.8-8.98-4.64-8.98-11.56,0-2.75,2.23-4.99,4.96-4.99h.01c1.57,0,3.01,.73,3.96,2,.22,.3,.73,.3,.96,0,.94-1.27,2.39-2,3.96-2,2.74,0,4.96,2.24,4.96,4.99,0,6.93-6.65,10.76-8.98,11.56Z" fill="#010101"/><rect width="24" height="24" fill="none"/></svg>